<mxfile host="65bd71144e" pages="3">
    <diagram name="ページ1" id="JO9bKBUjUjnM01ZXIFF-">
        <mxGraphModel dx="328" dy="544" grid="1" gridSize="10" guides="1" tooltips="1" connect="1" arrows="1" fold="1" page="1" pageScale="1" pageWidth="827" pageHeight="1169" math="1" shadow="0">
            <root>
                <mxCell id="0"/>
                <mxCell id="1" parent="0"/>
                <mxCell id="db5N6P0RxV9W0IyeQy6w-9" style="rounded=0;orthogonalLoop=1;jettySize=auto;html=1;fontSize=35;" parent="1" source="db5N6P0RxV9W0IyeQy6w-2" target="db5N6P0RxV9W0IyeQy6w-6" edge="1">
                    <mxGeometry relative="1" as="geometry"/>
                </mxCell>
                <mxCell id="db5N6P0RxV9W0IyeQy6w-10" style="edgeStyle=none;rounded=0;orthogonalLoop=1;jettySize=auto;html=1;fontSize=35;" parent="1" source="db5N6P0RxV9W0IyeQy6w-2" target="db5N6P0RxV9W0IyeQy6w-7" edge="1">
                    <mxGeometry relative="1" as="geometry"/>
                </mxCell>
                <mxCell id="db5N6P0RxV9W0IyeQy6w-2" value="&lt;font style=&quot;font-size: 35px;&quot;&gt;\(x\)&lt;/font&gt;" style="ellipse;whiteSpace=wrap;html=1;aspect=fixed;" parent="1" vertex="1">
                    <mxGeometry x="190" y="450" width="80" height="80" as="geometry"/>
                </mxCell>
                <mxCell id="db5N6P0RxV9W0IyeQy6w-12" style="edgeStyle=none;rounded=0;orthogonalLoop=1;jettySize=auto;html=1;fontSize=35;" parent="1" source="db5N6P0RxV9W0IyeQy6w-6" target="db5N6P0RxV9W0IyeQy6w-8" edge="1">
                    <mxGeometry relative="1" as="geometry"/>
                </mxCell>
                <mxCell id="db5N6P0RxV9W0IyeQy6w-6" value="&lt;font style=&quot;font-size: 35px;&quot;&gt;\(w_1\)&lt;/font&gt;" style="ellipse;whiteSpace=wrap;html=1;aspect=fixed;" parent="1" vertex="1">
                    <mxGeometry x="380" y="370" width="80" height="80" as="geometry"/>
                </mxCell>
                <mxCell id="db5N6P0RxV9W0IyeQy6w-11" style="edgeStyle=none;rounded=0;orthogonalLoop=1;jettySize=auto;html=1;fontSize=35;" parent="1" source="db5N6P0RxV9W0IyeQy6w-7" target="db5N6P0RxV9W0IyeQy6w-8" edge="1">
                    <mxGeometry relative="1" as="geometry"/>
                </mxCell>
                <mxCell id="db5N6P0RxV9W0IyeQy6w-7" value="&lt;font style=&quot;font-size: 35px;&quot;&gt;\(w_2\)&lt;/font&gt;" style="ellipse;whiteSpace=wrap;html=1;aspect=fixed;" parent="1" vertex="1">
                    <mxGeometry x="380" y="530" width="80" height="80" as="geometry"/>
                </mxCell>
                <mxCell id="db5N6P0RxV9W0IyeQy6w-8" value="&lt;font style=&quot;font-size: 35px;&quot;&gt;\(y\)&lt;/font&gt;" style="ellipse;whiteSpace=wrap;html=1;aspect=fixed;" parent="1" vertex="1">
                    <mxGeometry x="570" y="450" width="80" height="80" as="geometry"/>
                </mxCell>
            </root>
        </mxGraphModel>
    </diagram>
    <diagram id="Wa7UFKbDFlrPrhqYF1i3" name="ページ2">
        <mxGraphModel dx="328" dy="544" grid="1" gridSize="10" guides="1" tooltips="1" connect="1" arrows="1" fold="1" page="1" pageScale="1" pageWidth="1169" pageHeight="827" math="1" shadow="0">
            <root>
                <mxCell id="0"/>
                <mxCell id="1" parent="0"/>
                <mxCell id="uDfMi58RsckfuuIboKeq-9" value="" style="endArrow=none;html=1;rounded=0;fontSize=35;" parent="1" edge="1">
                    <mxGeometry width="50" height="50" relative="1" as="geometry">
                        <mxPoint x="370" y="205.000000000004" as="sourcePoint"/>
                        <mxPoint x="530" y="205" as="targetPoint"/>
                    </mxGeometry>
                </mxCell>
                <mxCell id="uDfMi58RsckfuuIboKeq-10" value="\(a_1x+b_1\)" style="edgeLabel;html=1;align=center;verticalAlign=bottom;resizable=0;points=[];fontSize=35;labelPosition=center;verticalLabelPosition=top;" parent="uDfMi58RsckfuuIboKeq-9" vertex="1" connectable="0">
                    <mxGeometry relative="1" as="geometry">
                        <mxPoint as="offset"/>
                    </mxGeometry>
                </mxCell>
                <mxCell id="uDfMi58RsckfuuIboKeq-15" value="" style="endArrow=none;html=1;rounded=0;fontSize=35;" parent="1" edge="1">
                    <mxGeometry width="50" height="50" relative="1" as="geometry">
                        <mxPoint x="80" y="80.00000000000011" as="sourcePoint"/>
                        <mxPoint x="130" y="80" as="targetPoint"/>
                    </mxGeometry>
                </mxCell>
                <mxCell id="uDfMi58RsckfuuIboKeq-16" value="\(x\)" style="edgeLabel;html=1;align=center;verticalAlign=bottom;resizable=0;points=[];fontSize=35;labelPosition=center;verticalLabelPosition=top;" parent="uDfMi58RsckfuuIboKeq-15" vertex="1" connectable="0">
                    <mxGeometry relative="1" as="geometry">
                        <mxPoint as="offset"/>
                    </mxGeometry>
                </mxCell>
                <mxCell id="uDfMi58RsckfuuIboKeq-18" value="" style="endArrow=none;html=1;rounded=0;fontSize=35;" parent="1" edge="1">
                    <mxGeometry width="50" height="50" relative="1" as="geometry">
                        <mxPoint x="80" y="180.0000000000001" as="sourcePoint"/>
                        <mxPoint x="130" y="180.0000000000001" as="targetPoint"/>
                    </mxGeometry>
                </mxCell>
                <mxCell id="uDfMi58RsckfuuIboKeq-19" value="\(a_1\)" style="edgeLabel;html=1;align=center;verticalAlign=bottom;resizable=0;points=[];fontSize=35;labelPosition=center;verticalLabelPosition=top;" parent="uDfMi58RsckfuuIboKeq-18" vertex="1" connectable="0">
                    <mxGeometry relative="1" as="geometry">
                        <mxPoint as="offset"/>
                    </mxGeometry>
                </mxCell>
                <mxCell id="uDfMi58RsckfuuIboKeq-20" value="" style="endArrow=none;html=1;rounded=0;fontSize=35;" parent="1" edge="1">
                    <mxGeometry width="50" height="50" relative="1" as="geometry">
                        <mxPoint x="80" y="280" as="sourcePoint"/>
                        <mxPoint x="290" y="280" as="targetPoint"/>
                    </mxGeometry>
                </mxCell>
                <mxCell id="uDfMi58RsckfuuIboKeq-21" value="\(b_1\)" style="edgeLabel;html=1;align=center;verticalAlign=bottom;resizable=0;points=[];fontSize=35;labelPosition=center;verticalLabelPosition=top;" parent="uDfMi58RsckfuuIboKeq-20" vertex="1" connectable="0">
                    <mxGeometry relative="1" as="geometry">
                        <mxPoint as="offset"/>
                    </mxGeometry>
                </mxCell>
                <mxCell id="uDfMi58RsckfuuIboKeq-26" style="edgeStyle=none;rounded=0;orthogonalLoop=1;jettySize=auto;html=1;fontSize=35;endArrow=none;endFill=0;" parent="1" source="uDfMi58RsckfuuIboKeq-23" edge="1">
                    <mxGeometry relative="1" as="geometry">
                        <mxPoint x="130" y="80.00000000000011" as="targetPoint"/>
                    </mxGeometry>
                </mxCell>
                <mxCell id="uDfMi58RsckfuuIboKeq-27" style="edgeStyle=none;rounded=0;orthogonalLoop=1;jettySize=auto;html=1;fontSize=35;endArrow=none;endFill=0;" parent="1" source="uDfMi58RsckfuuIboKeq-23" edge="1">
                    <mxGeometry relative="1" as="geometry">
                        <mxPoint x="130" y="180.0000000000001" as="targetPoint"/>
                    </mxGeometry>
                </mxCell>
                <mxCell id="uDfMi58RsckfuuIboKeq-23" value="\(+\)" style="ellipse;whiteSpace=wrap;html=1;aspect=fixed;fontSize=35;align=center;verticalAlign=middle;horizontal=1;" parent="1" vertex="1">
                    <mxGeometry x="170" y="110" width="40" height="40" as="geometry"/>
                </mxCell>
                <mxCell id="uDfMi58RsckfuuIboKeq-29" style="edgeStyle=none;rounded=0;orthogonalLoop=1;jettySize=auto;html=1;fontSize=35;endArrow=none;endFill=0;" parent="1" source="uDfMi58RsckfuuIboKeq-24" edge="1">
                    <mxGeometry relative="1" as="geometry">
                        <mxPoint x="290" y="280" as="targetPoint"/>
                    </mxGeometry>
                </mxCell>
                <mxCell id="uDfMi58RsckfuuIboKeq-32" style="edgeStyle=none;rounded=0;orthogonalLoop=1;jettySize=auto;html=1;fontSize=35;endArrow=none;endFill=0;" parent="1" source="uDfMi58RsckfuuIboKeq-24" edge="1">
                    <mxGeometry relative="1" as="geometry">
                        <mxPoint x="290" y="129.9999999999999" as="targetPoint"/>
                    </mxGeometry>
                </mxCell>
                <mxCell id="uDfMi58RsckfuuIboKeq-24" value="\(\times\)" style="ellipse;whiteSpace=wrap;html=1;aspect=fixed;fontSize=35;" parent="1" vertex="1">
                    <mxGeometry x="330" y="185" width="40" height="40" as="geometry"/>
                </mxCell>
                <mxCell id="uDfMi58RsckfuuIboKeq-30" value="" style="endArrow=none;html=1;rounded=0;fontSize=35;" parent="1" edge="1">
                    <mxGeometry width="50" height="50" relative="1" as="geometry">
                        <mxPoint x="210" y="130.00000000001" as="sourcePoint"/>
                        <mxPoint x="290" y="130" as="targetPoint"/>
                    </mxGeometry>
                </mxCell>
                <mxCell id="uDfMi58RsckfuuIboKeq-31" value="\(a_1x\)" style="edgeLabel;html=1;align=center;verticalAlign=bottom;resizable=0;points=[];fontSize=35;labelPosition=center;verticalLabelPosition=top;" parent="uDfMi58RsckfuuIboKeq-30" vertex="1" connectable="0">
                    <mxGeometry relative="1" as="geometry">
                        <mxPoint as="offset"/>
                    </mxGeometry>
                </mxCell>
                <mxCell id="uDfMi58RsckfuuIboKeq-71" style="edgeStyle=none;rounded=0;orthogonalLoop=1;jettySize=auto;html=1;fontSize=35;endArrow=none;endFill=0;" parent="1" source="uDfMi58RsckfuuIboKeq-33" edge="1">
                    <mxGeometry relative="1" as="geometry">
                        <mxPoint x="530" y="205" as="targetPoint"/>
                    </mxGeometry>
                </mxCell>
                <mxCell id="uDfMi58RsckfuuIboKeq-72" style="edgeStyle=none;rounded=0;orthogonalLoop=1;jettySize=auto;html=1;fontSize=35;endArrow=none;endFill=0;" parent="1" source="uDfMi58RsckfuuIboKeq-33" edge="1">
                    <mxGeometry relative="1" as="geometry">
                        <mxPoint x="530" y="485" as="targetPoint"/>
                    </mxGeometry>
                </mxCell>
                <mxCell id="bnDec_bd7UpB-00zP2ql-5" style="edgeStyle=none;rounded=0;orthogonalLoop=1;jettySize=auto;html=1;fontSize=20;endArrow=none;endFill=0;" parent="1" source="uDfMi58RsckfuuIboKeq-33" target="bnDec_bd7UpB-00zP2ql-2" edge="1">
                    <mxGeometry relative="1" as="geometry"/>
                </mxCell>
                <mxCell id="bnDec_bd7UpB-00zP2ql-6" value="&lt;font style=&quot;font-size: 35px;&quot;&gt;\(\sigma(w_1,w_2)\)&lt;/font&gt;" style="edgeLabel;html=1;align=center;verticalAlign=bottom;resizable=0;points=[];fontSize=20;labelPosition=center;verticalLabelPosition=top;" parent="bnDec_bd7UpB-00zP2ql-5" vertex="1" connectable="0">
                    <mxGeometry relative="1" as="geometry">
                        <mxPoint as="offset"/>
                    </mxGeometry>
                </mxCell>
                <mxCell id="uDfMi58RsckfuuIboKeq-33" value="\(\sigma\)" style="ellipse;whiteSpace=wrap;html=1;aspect=fixed;fontSize=35;" parent="1" vertex="1">
                    <mxGeometry x="570" y="325" width="40" height="40" as="geometry"/>
                </mxCell>
                <mxCell id="uDfMi58RsckfuuIboKeq-50" value="" style="endArrow=none;html=1;rounded=0;fontSize=35;" parent="1" edge="1">
                    <mxGeometry width="50" height="50" relative="1" as="geometry">
                        <mxPoint x="370" y="484.5799999999999" as="sourcePoint"/>
                        <mxPoint x="530" y="484.5799999999999" as="targetPoint"/>
                    </mxGeometry>
                </mxCell>
                <mxCell id="uDfMi58RsckfuuIboKeq-51" value="\(a_2x+b_2\)" style="edgeLabel;html=1;align=center;verticalAlign=bottom;resizable=0;points=[];fontSize=35;labelPosition=center;verticalLabelPosition=top;" parent="uDfMi58RsckfuuIboKeq-50" vertex="1" connectable="0">
                    <mxGeometry relative="1" as="geometry">
                        <mxPoint as="offset"/>
                    </mxGeometry>
                </mxCell>
                <mxCell id="uDfMi58RsckfuuIboKeq-52" value="" style="endArrow=none;html=1;rounded=0;fontSize=35;" parent="1" edge="1">
                    <mxGeometry width="50" height="50" relative="1" as="geometry">
                        <mxPoint x="80" y="360" as="sourcePoint"/>
                        <mxPoint x="130" y="360" as="targetPoint"/>
                    </mxGeometry>
                </mxCell>
                <mxCell id="uDfMi58RsckfuuIboKeq-53" value="\(x\)" style="edgeLabel;html=1;align=center;verticalAlign=bottom;resizable=0;points=[];fontSize=35;labelPosition=center;verticalLabelPosition=top;" parent="uDfMi58RsckfuuIboKeq-52" vertex="1" connectable="0">
                    <mxGeometry relative="1" as="geometry">
                        <mxPoint as="offset"/>
                    </mxGeometry>
                </mxCell>
                <mxCell id="uDfMi58RsckfuuIboKeq-54" value="" style="endArrow=none;html=1;rounded=0;fontSize=35;" parent="1" edge="1">
                    <mxGeometry width="50" height="50" relative="1" as="geometry">
                        <mxPoint x="80" y="460" as="sourcePoint"/>
                        <mxPoint x="130" y="460" as="targetPoint"/>
                    </mxGeometry>
                </mxCell>
                <mxCell id="uDfMi58RsckfuuIboKeq-55" value="\(a_2\)" style="edgeLabel;html=1;align=center;verticalAlign=bottom;resizable=0;points=[];fontSize=35;labelPosition=center;verticalLabelPosition=top;" parent="uDfMi58RsckfuuIboKeq-54" vertex="1" connectable="0">
                    <mxGeometry relative="1" as="geometry">
                        <mxPoint as="offset"/>
                    </mxGeometry>
                </mxCell>
                <mxCell id="uDfMi58RsckfuuIboKeq-56" value="" style="endArrow=none;html=1;rounded=0;fontSize=35;" parent="1" edge="1">
                    <mxGeometry width="50" height="50" relative="1" as="geometry">
                        <mxPoint x="80" y="560" as="sourcePoint"/>
                        <mxPoint x="290" y="560" as="targetPoint"/>
                    </mxGeometry>
                </mxCell>
                <mxCell id="uDfMi58RsckfuuIboKeq-57" value="\(b_2\)" style="edgeLabel;html=1;align=center;verticalAlign=bottom;resizable=0;points=[];fontSize=35;labelPosition=center;verticalLabelPosition=top;" parent="uDfMi58RsckfuuIboKeq-56" vertex="1" connectable="0">
                    <mxGeometry relative="1" as="geometry">
                        <mxPoint as="offset"/>
                    </mxGeometry>
                </mxCell>
                <mxCell id="uDfMi58RsckfuuIboKeq-58" style="edgeStyle=none;rounded=0;orthogonalLoop=1;jettySize=auto;html=1;fontSize=35;endArrow=none;endFill=0;" parent="1" source="uDfMi58RsckfuuIboKeq-60" edge="1">
                    <mxGeometry relative="1" as="geometry">
                        <mxPoint x="130" y="360" as="targetPoint"/>
                    </mxGeometry>
                </mxCell>
                <mxCell id="uDfMi58RsckfuuIboKeq-59" style="edgeStyle=none;rounded=0;orthogonalLoop=1;jettySize=auto;html=1;fontSize=35;endArrow=none;endFill=0;" parent="1" source="uDfMi58RsckfuuIboKeq-60" edge="1">
                    <mxGeometry relative="1" as="geometry">
                        <mxPoint x="130" y="460" as="targetPoint"/>
                    </mxGeometry>
                </mxCell>
                <mxCell id="uDfMi58RsckfuuIboKeq-60" value="\(+\)" style="ellipse;whiteSpace=wrap;html=1;aspect=fixed;fontSize=35;align=center;verticalAlign=middle;horizontal=1;" parent="1" vertex="1">
                    <mxGeometry x="170" y="390" width="40" height="40" as="geometry"/>
                </mxCell>
                <mxCell id="uDfMi58RsckfuuIboKeq-61" style="edgeStyle=none;rounded=0;orthogonalLoop=1;jettySize=auto;html=1;fontSize=35;endArrow=none;endFill=0;" parent="1" source="uDfMi58RsckfuuIboKeq-63" edge="1">
                    <mxGeometry relative="1" as="geometry">
                        <mxPoint x="290" y="560" as="targetPoint"/>
                    </mxGeometry>
                </mxCell>
                <mxCell id="uDfMi58RsckfuuIboKeq-62" style="edgeStyle=none;rounded=0;orthogonalLoop=1;jettySize=auto;html=1;fontSize=35;endArrow=none;endFill=0;" parent="1" source="uDfMi58RsckfuuIboKeq-63" edge="1">
                    <mxGeometry relative="1" as="geometry">
                        <mxPoint x="290" y="410" as="targetPoint"/>
                    </mxGeometry>
                </mxCell>
                <mxCell id="uDfMi58RsckfuuIboKeq-63" value="\(\times\)" style="ellipse;whiteSpace=wrap;html=1;aspect=fixed;fontSize=35;" parent="1" vertex="1">
                    <mxGeometry x="330" y="465" width="40" height="40" as="geometry"/>
                </mxCell>
                <mxCell id="uDfMi58RsckfuuIboKeq-64" value="" style="endArrow=none;html=1;rounded=0;fontSize=35;" parent="1" edge="1">
                    <mxGeometry width="50" height="50" relative="1" as="geometry">
                        <mxPoint x="210" y="410.00000000001" as="sourcePoint"/>
                        <mxPoint x="290" y="410" as="targetPoint"/>
                    </mxGeometry>
                </mxCell>
                <mxCell id="uDfMi58RsckfuuIboKeq-65" value="\(a_2x\)" style="edgeLabel;html=1;align=center;verticalAlign=bottom;resizable=0;points=[];fontSize=35;labelPosition=center;verticalLabelPosition=top;" parent="uDfMi58RsckfuuIboKeq-64" vertex="1" connectable="0">
                    <mxGeometry relative="1" as="geometry">
                        <mxPoint as="offset"/>
                    </mxGeometry>
                </mxCell>
                <mxCell id="bnDec_bd7UpB-00zP2ql-3" style="edgeStyle=none;rounded=0;orthogonalLoop=1;jettySize=auto;html=1;fontSize=20;endArrow=none;endFill=0;" parent="1" source="bnDec_bd7UpB-00zP2ql-2" edge="1">
                    <mxGeometry relative="1" as="geometry">
                        <mxPoint x="970" y="345.0000000000001" as="targetPoint"/>
                    </mxGeometry>
                </mxCell>
                <mxCell id="bnDec_bd7UpB-00zP2ql-7" value="\(L\)" style="edgeLabel;html=1;align=center;verticalAlign=bottom;resizable=0;points=[];fontSize=35;labelPosition=center;verticalLabelPosition=top;" parent="bnDec_bd7UpB-00zP2ql-3" vertex="1" connectable="0">
                    <mxGeometry relative="1" as="geometry">
                        <mxPoint as="offset"/>
                    </mxGeometry>
                </mxCell>
                <mxCell id="bnDec_bd7UpB-00zP2ql-2" value="&lt;font style=&quot;font-size: 20px;&quot;&gt;loss&lt;/font&gt;" style="ellipse;whiteSpace=wrap;html=1;aspect=fixed;fontSize=35;verticalAlign=bottom;" parent="1" vertex="1">
                    <mxGeometry x="850" y="325" width="40" height="40" as="geometry"/>
                </mxCell>
            </root>
        </mxGraphModel>
    </diagram>
    <diagram id="_erWJAJT5GVY9A1fe7bu" name="ページ3">
        <mxGraphModel dx="328" dy="544" grid="1" gridSize="10" guides="1" tooltips="1" connect="1" arrows="1" fold="1" page="1" pageScale="1" pageWidth="1169" pageHeight="827" math="1" shadow="0">
            <root>
                <mxCell id="0"/>
                <mxCell id="1" parent="0"/>
                <mxCell id="4tc6n9DdywTaeD5IJjd0-1" value="" style="endArrow=none;html=1;rounded=0;fontSize=35;" parent="1" edge="1">
                    <mxGeometry width="50" height="50" relative="1" as="geometry">
                        <mxPoint x="370" y="205.00000000000398" as="sourcePoint"/>
                        <mxPoint x="530" y="205" as="targetPoint"/>
                    </mxGeometry>
                </mxCell>
                <mxCell id="4tc6n9DdywTaeD5IJjd0-2" value="\(a_1x+b_1\)" style="edgeLabel;html=1;align=center;verticalAlign=bottom;resizable=0;points=[];fontSize=35;labelPosition=center;verticalLabelPosition=top;" parent="4tc6n9DdywTaeD5IJjd0-1" vertex="1" connectable="0">
                    <mxGeometry relative="1" as="geometry">
                        <mxPoint as="offset"/>
                    </mxGeometry>
                </mxCell>
                <mxCell id="4tc6n9DdywTaeD5IJjd0-43" value="\(w_1(1-w_1)\)" style="edgeLabel;html=1;align=center;verticalAlign=top;resizable=0;points=[];fontSize=35;labelPosition=center;verticalLabelPosition=bottom;" parent="4tc6n9DdywTaeD5IJjd0-1" vertex="1" connectable="0">
                    <mxGeometry relative="1" as="geometry">
                        <mxPoint as="offset"/>
                    </mxGeometry>
                </mxCell>
                <mxCell id="4tc6n9DdywTaeD5IJjd0-3" value="" style="endArrow=none;html=1;rounded=0;fontSize=35;" parent="1" edge="1">
                    <mxGeometry width="50" height="50" relative="1" as="geometry">
                        <mxPoint x="80" y="80.00000000000011" as="sourcePoint"/>
                        <mxPoint x="130" y="80" as="targetPoint"/>
                    </mxGeometry>
                </mxCell>
                <mxCell id="4tc6n9DdywTaeD5IJjd0-4" value="\(x\)" style="edgeLabel;html=1;align=center;verticalAlign=bottom;resizable=0;points=[];fontSize=35;labelPosition=center;verticalLabelPosition=top;" parent="4tc6n9DdywTaeD5IJjd0-3" vertex="1" connectable="0">
                    <mxGeometry relative="1" as="geometry">
                        <mxPoint as="offset"/>
                    </mxGeometry>
                </mxCell>
                <mxCell id="4tc6n9DdywTaeD5IJjd0-46" value="\(a_1\)" style="edgeLabel;html=1;align=center;verticalAlign=top;resizable=0;points=[];fontSize=35;labelPosition=center;verticalLabelPosition=bottom;" parent="4tc6n9DdywTaeD5IJjd0-3" vertex="1" connectable="0">
                    <mxGeometry relative="1" as="geometry">
                        <mxPoint as="offset"/>
                    </mxGeometry>
                </mxCell>
                <mxCell id="4tc6n9DdywTaeD5IJjd0-5" value="" style="endArrow=none;html=1;rounded=0;fontSize=35;" parent="1" edge="1">
                    <mxGeometry width="50" height="50" relative="1" as="geometry">
                        <mxPoint x="80" y="180.0000000000001" as="sourcePoint"/>
                        <mxPoint x="130" y="180.0000000000001" as="targetPoint"/>
                    </mxGeometry>
                </mxCell>
                <mxCell id="4tc6n9DdywTaeD5IJjd0-6" value="\(a_1\)" style="edgeLabel;html=1;align=center;verticalAlign=bottom;resizable=0;points=[];fontSize=35;labelPosition=center;verticalLabelPosition=top;" parent="4tc6n9DdywTaeD5IJjd0-5" vertex="1" connectable="0">
                    <mxGeometry relative="1" as="geometry">
                        <mxPoint as="offset"/>
                    </mxGeometry>
                </mxCell>
                <mxCell id="4tc6n9DdywTaeD5IJjd0-47" value="\(x\)" style="edgeLabel;html=1;align=center;verticalAlign=top;resizable=0;points=[];fontSize=35;labelPosition=center;verticalLabelPosition=bottom;" parent="4tc6n9DdywTaeD5IJjd0-5" vertex="1" connectable="0">
                    <mxGeometry relative="1" as="geometry">
                        <mxPoint as="offset"/>
                    </mxGeometry>
                </mxCell>
                <mxCell id="4tc6n9DdywTaeD5IJjd0-7" value="" style="endArrow=none;html=1;rounded=0;fontSize=35;" parent="1" edge="1">
                    <mxGeometry width="50" height="50" relative="1" as="geometry">
                        <mxPoint x="80" y="280" as="sourcePoint"/>
                        <mxPoint x="290" y="280" as="targetPoint"/>
                    </mxGeometry>
                </mxCell>
                <mxCell id="4tc6n9DdywTaeD5IJjd0-8" value="\(b_1\)" style="edgeLabel;html=1;align=center;verticalAlign=bottom;resizable=0;points=[];fontSize=35;labelPosition=center;verticalLabelPosition=top;" parent="4tc6n9DdywTaeD5IJjd0-7" vertex="1" connectable="0">
                    <mxGeometry relative="1" as="geometry">
                        <mxPoint as="offset"/>
                    </mxGeometry>
                </mxCell>
                <mxCell id="4tc6n9DdywTaeD5IJjd0-48" value="\(1\)" style="edgeLabel;html=1;align=center;verticalAlign=top;resizable=0;points=[];fontSize=35;labelPosition=center;verticalLabelPosition=bottom;" parent="4tc6n9DdywTaeD5IJjd0-7" vertex="1" connectable="0">
                    <mxGeometry relative="1" as="geometry">
                        <mxPoint as="offset"/>
                    </mxGeometry>
                </mxCell>
                <mxCell id="4tc6n9DdywTaeD5IJjd0-9" style="edgeStyle=none;rounded=0;orthogonalLoop=1;jettySize=auto;html=1;fontSize=35;endArrow=none;endFill=0;" parent="1" source="4tc6n9DdywTaeD5IJjd0-11" edge="1">
                    <mxGeometry relative="1" as="geometry">
                        <mxPoint x="130" y="80.00000000000011" as="targetPoint"/>
                    </mxGeometry>
                </mxCell>
                <mxCell id="4tc6n9DdywTaeD5IJjd0-10" style="edgeStyle=none;rounded=0;orthogonalLoop=1;jettySize=auto;html=1;fontSize=35;endArrow=none;endFill=0;" parent="1" source="4tc6n9DdywTaeD5IJjd0-11" edge="1">
                    <mxGeometry relative="1" as="geometry">
                        <mxPoint x="130" y="180.0000000000001" as="targetPoint"/>
                    </mxGeometry>
                </mxCell>
                <mxCell id="4tc6n9DdywTaeD5IJjd0-11" value="\(+\)" style="ellipse;whiteSpace=wrap;html=1;aspect=fixed;fontSize=35;align=center;verticalAlign=middle;horizontal=1;" parent="1" vertex="1">
                    <mxGeometry x="170" y="110" width="40" height="40" as="geometry"/>
                </mxCell>
                <mxCell id="4tc6n9DdywTaeD5IJjd0-12" style="edgeStyle=none;rounded=0;orthogonalLoop=1;jettySize=auto;html=1;fontSize=35;endArrow=none;endFill=0;" parent="1" source="4tc6n9DdywTaeD5IJjd0-14" edge="1">
                    <mxGeometry relative="1" as="geometry">
                        <mxPoint x="290" y="280" as="targetPoint"/>
                    </mxGeometry>
                </mxCell>
                <mxCell id="4tc6n9DdywTaeD5IJjd0-13" style="edgeStyle=none;rounded=0;orthogonalLoop=1;jettySize=auto;html=1;fontSize=35;endArrow=none;endFill=0;" parent="1" source="4tc6n9DdywTaeD5IJjd0-14" edge="1">
                    <mxGeometry relative="1" as="geometry">
                        <mxPoint x="290" y="129.9999999999999" as="targetPoint"/>
                    </mxGeometry>
                </mxCell>
                <mxCell id="4tc6n9DdywTaeD5IJjd0-14" value="\(\times\)" style="ellipse;whiteSpace=wrap;html=1;aspect=fixed;fontSize=35;" parent="1" vertex="1">
                    <mxGeometry x="330" y="185" width="40" height="40" as="geometry"/>
                </mxCell>
                <mxCell id="4tc6n9DdywTaeD5IJjd0-15" value="" style="endArrow=none;html=1;rounded=0;fontSize=35;" parent="1" edge="1">
                    <mxGeometry width="50" height="50" relative="1" as="geometry">
                        <mxPoint x="210" y="130.00000000001" as="sourcePoint"/>
                        <mxPoint x="290" y="130" as="targetPoint"/>
                    </mxGeometry>
                </mxCell>
                <mxCell id="4tc6n9DdywTaeD5IJjd0-16" value="\(a_1x\)" style="edgeLabel;html=1;align=center;verticalAlign=bottom;resizable=0;points=[];fontSize=35;labelPosition=center;verticalLabelPosition=top;" parent="4tc6n9DdywTaeD5IJjd0-15" vertex="1" connectable="0">
                    <mxGeometry relative="1" as="geometry">
                        <mxPoint as="offset"/>
                    </mxGeometry>
                </mxCell>
                <mxCell id="4tc6n9DdywTaeD5IJjd0-45" value="\(1\)" style="edgeLabel;html=1;align=center;verticalAlign=top;resizable=0;points=[];fontSize=35;labelPosition=center;verticalLabelPosition=bottom;" parent="4tc6n9DdywTaeD5IJjd0-15" vertex="1" connectable="0">
                    <mxGeometry relative="1" as="geometry">
                        <mxPoint as="offset"/>
                    </mxGeometry>
                </mxCell>
                <mxCell id="4tc6n9DdywTaeD5IJjd0-17" style="edgeStyle=none;rounded=0;orthogonalLoop=1;jettySize=auto;html=1;fontSize=35;endArrow=none;endFill=0;" parent="1" source="4tc6n9DdywTaeD5IJjd0-21" edge="1">
                    <mxGeometry relative="1" as="geometry">
                        <mxPoint x="530" y="205" as="targetPoint"/>
                    </mxGeometry>
                </mxCell>
                <mxCell id="4tc6n9DdywTaeD5IJjd0-18" style="edgeStyle=none;rounded=0;orthogonalLoop=1;jettySize=auto;html=1;fontSize=35;endArrow=none;endFill=0;" parent="1" source="4tc6n9DdywTaeD5IJjd0-21" edge="1">
                    <mxGeometry relative="1" as="geometry">
                        <mxPoint x="530" y="485" as="targetPoint"/>
                    </mxGeometry>
                </mxCell>
                <mxCell id="4tc6n9DdywTaeD5IJjd0-19" style="edgeStyle=none;rounded=0;orthogonalLoop=1;jettySize=auto;html=1;fontSize=20;endArrow=none;endFill=0;" parent="1" source="4tc6n9DdywTaeD5IJjd0-21" target="4tc6n9DdywTaeD5IJjd0-40" edge="1">
                    <mxGeometry relative="1" as="geometry"/>
                </mxCell>
                <mxCell id="4tc6n9DdywTaeD5IJjd0-20" value="&lt;font style=&quot;font-size: 35px;&quot;&gt;\(\sigma(w_1,w_2)\)&lt;/font&gt;" style="edgeLabel;html=1;align=center;verticalAlign=bottom;resizable=0;points=[];fontSize=20;labelPosition=center;verticalLabelPosition=top;" parent="4tc6n9DdywTaeD5IJjd0-19" vertex="1" connectable="0">
                    <mxGeometry relative="1" as="geometry">
                        <mxPoint as="offset"/>
                    </mxGeometry>
                </mxCell>
                <mxCell id="4tc6n9DdywTaeD5IJjd0-42" value="\(\sigma(w_1,w_2)-t\)" style="edgeLabel;html=1;align=center;verticalAlign=top;resizable=0;points=[];fontSize=35;labelPosition=center;verticalLabelPosition=bottom;" parent="4tc6n9DdywTaeD5IJjd0-19" vertex="1" connectable="0">
                    <mxGeometry relative="1" as="geometry">
                        <mxPoint as="offset"/>
                    </mxGeometry>
                </mxCell>
                <mxCell id="4tc6n9DdywTaeD5IJjd0-21" value="\(\sigma\)" style="ellipse;whiteSpace=wrap;html=1;aspect=fixed;fontSize=35;" parent="1" vertex="1">
                    <mxGeometry x="570" y="325" width="40" height="40" as="geometry"/>
                </mxCell>
                <mxCell id="4tc6n9DdywTaeD5IJjd0-22" value="" style="endArrow=none;html=1;rounded=0;fontSize=35;" parent="1" edge="1">
                    <mxGeometry width="50" height="50" relative="1" as="geometry">
                        <mxPoint x="370" y="484.5799999999999" as="sourcePoint"/>
                        <mxPoint x="530" y="484.5799999999999" as="targetPoint"/>
                    </mxGeometry>
                </mxCell>
                <mxCell id="4tc6n9DdywTaeD5IJjd0-23" value="\(a_2x+b_2\)" style="edgeLabel;html=1;align=center;verticalAlign=bottom;resizable=0;points=[];fontSize=35;labelPosition=center;verticalLabelPosition=top;" parent="4tc6n9DdywTaeD5IJjd0-22" vertex="1" connectable="0">
                    <mxGeometry relative="1" as="geometry">
                        <mxPoint as="offset"/>
                    </mxGeometry>
                </mxCell>
                <mxCell id="4tc6n9DdywTaeD5IJjd0-44" value="\(w_1(1-w_1)\)" style="edgeLabel;html=1;align=center;verticalAlign=top;resizable=0;points=[];fontSize=35;labelPosition=center;verticalLabelPosition=bottom;" parent="4tc6n9DdywTaeD5IJjd0-22" vertex="1" connectable="0">
                    <mxGeometry relative="1" as="geometry">
                        <mxPoint as="offset"/>
                    </mxGeometry>
                </mxCell>
                <mxCell id="4tc6n9DdywTaeD5IJjd0-24" value="" style="endArrow=none;html=1;rounded=0;fontSize=35;" parent="1" edge="1">
                    <mxGeometry width="50" height="50" relative="1" as="geometry">
                        <mxPoint x="80" y="360" as="sourcePoint"/>
                        <mxPoint x="130" y="360" as="targetPoint"/>
                    </mxGeometry>
                </mxCell>
                <mxCell id="4tc6n9DdywTaeD5IJjd0-25" value="\(x\)" style="edgeLabel;html=1;align=center;verticalAlign=bottom;resizable=0;points=[];fontSize=35;labelPosition=center;verticalLabelPosition=top;" parent="4tc6n9DdywTaeD5IJjd0-24" vertex="1" connectable="0">
                    <mxGeometry relative="1" as="geometry">
                        <mxPoint as="offset"/>
                    </mxGeometry>
                </mxCell>
                <mxCell id="4tc6n9DdywTaeD5IJjd0-54" value="\(a_2\)" style="edgeLabel;html=1;align=center;verticalAlign=top;resizable=0;points=[];fontSize=35;labelPosition=center;verticalLabelPosition=bottom;" parent="4tc6n9DdywTaeD5IJjd0-24" vertex="1" connectable="0">
                    <mxGeometry relative="1" as="geometry">
                        <mxPoint as="offset"/>
                    </mxGeometry>
                </mxCell>
                <mxCell id="4tc6n9DdywTaeD5IJjd0-26" value="" style="endArrow=none;html=1;rounded=0;fontSize=35;" parent="1" edge="1">
                    <mxGeometry width="50" height="50" relative="1" as="geometry">
                        <mxPoint x="80" y="460" as="sourcePoint"/>
                        <mxPoint x="130" y="460" as="targetPoint"/>
                    </mxGeometry>
                </mxCell>
                <mxCell id="4tc6n9DdywTaeD5IJjd0-27" value="\(a_2\)" style="edgeLabel;html=1;align=center;verticalAlign=bottom;resizable=0;points=[];fontSize=35;labelPosition=center;verticalLabelPosition=top;" parent="4tc6n9DdywTaeD5IJjd0-26" vertex="1" connectable="0">
                    <mxGeometry relative="1" as="geometry">
                        <mxPoint as="offset"/>
                    </mxGeometry>
                </mxCell>
                <mxCell id="4tc6n9DdywTaeD5IJjd0-28" value="" style="endArrow=none;html=1;rounded=0;fontSize=35;" parent="1" edge="1">
                    <mxGeometry width="50" height="50" relative="1" as="geometry">
                        <mxPoint x="80" y="560" as="sourcePoint"/>
                        <mxPoint x="290" y="560" as="targetPoint"/>
                    </mxGeometry>
                </mxCell>
                <mxCell id="4tc6n9DdywTaeD5IJjd0-29" value="\(b_2\)" style="edgeLabel;html=1;align=center;verticalAlign=bottom;resizable=0;points=[];fontSize=35;labelPosition=center;verticalLabelPosition=top;" parent="4tc6n9DdywTaeD5IJjd0-28" vertex="1" connectable="0">
                    <mxGeometry relative="1" as="geometry">
                        <mxPoint as="offset"/>
                    </mxGeometry>
                </mxCell>
                <mxCell id="4tc6n9DdywTaeD5IJjd0-30" style="edgeStyle=none;rounded=0;orthogonalLoop=1;jettySize=auto;html=1;fontSize=35;endArrow=none;endFill=0;" parent="1" source="4tc6n9DdywTaeD5IJjd0-32" edge="1">
                    <mxGeometry relative="1" as="geometry">
                        <mxPoint x="130" y="360" as="targetPoint"/>
                    </mxGeometry>
                </mxCell>
                <mxCell id="4tc6n9DdywTaeD5IJjd0-31" style="edgeStyle=none;rounded=0;orthogonalLoop=1;jettySize=auto;html=1;fontSize=35;endArrow=none;endFill=0;" parent="1" source="4tc6n9DdywTaeD5IJjd0-32" edge="1">
                    <mxGeometry relative="1" as="geometry">
                        <mxPoint x="130" y="460" as="targetPoint"/>
                    </mxGeometry>
                </mxCell>
                <mxCell id="4tc6n9DdywTaeD5IJjd0-32" value="\(+\)" style="ellipse;whiteSpace=wrap;html=1;aspect=fixed;fontSize=35;align=center;verticalAlign=middle;horizontal=1;" parent="1" vertex="1">
                    <mxGeometry x="170" y="390" width="40" height="40" as="geometry"/>
                </mxCell>
                <mxCell id="4tc6n9DdywTaeD5IJjd0-33" style="edgeStyle=none;rounded=0;orthogonalLoop=1;jettySize=auto;html=1;fontSize=35;endArrow=none;endFill=0;" parent="1" source="4tc6n9DdywTaeD5IJjd0-35" edge="1">
                    <mxGeometry relative="1" as="geometry">
                        <mxPoint x="290" y="560" as="targetPoint"/>
                    </mxGeometry>
                </mxCell>
                <mxCell id="4tc6n9DdywTaeD5IJjd0-34" style="edgeStyle=none;rounded=0;orthogonalLoop=1;jettySize=auto;html=1;fontSize=35;endArrow=none;endFill=0;" parent="1" source="4tc6n9DdywTaeD5IJjd0-35" edge="1">
                    <mxGeometry relative="1" as="geometry">
                        <mxPoint x="290" y="410" as="targetPoint"/>
                    </mxGeometry>
                </mxCell>
                <mxCell id="4tc6n9DdywTaeD5IJjd0-35" value="\(\times\)" style="ellipse;whiteSpace=wrap;html=1;aspect=fixed;fontSize=35;" parent="1" vertex="1">
                    <mxGeometry x="330" y="465" width="40" height="40" as="geometry"/>
                </mxCell>
                <mxCell id="4tc6n9DdywTaeD5IJjd0-36" value="" style="endArrow=none;html=1;rounded=0;fontSize=35;" parent="1" edge="1">
                    <mxGeometry width="50" height="50" relative="1" as="geometry">
                        <mxPoint x="210" y="410.00000000001" as="sourcePoint"/>
                        <mxPoint x="290" y="410" as="targetPoint"/>
                    </mxGeometry>
                </mxCell>
                <mxCell id="4tc6n9DdywTaeD5IJjd0-37" value="\(a_2x\)" style="edgeLabel;html=1;align=center;verticalAlign=bottom;resizable=0;points=[];fontSize=35;labelPosition=center;verticalLabelPosition=top;" parent="4tc6n9DdywTaeD5IJjd0-36" vertex="1" connectable="0">
                    <mxGeometry relative="1" as="geometry">
                        <mxPoint as="offset"/>
                    </mxGeometry>
                </mxCell>
                <mxCell id="4tc6n9DdywTaeD5IJjd0-38" style="edgeStyle=none;rounded=0;orthogonalLoop=1;jettySize=auto;html=1;fontSize=20;endArrow=none;endFill=0;" parent="1" source="4tc6n9DdywTaeD5IJjd0-40" edge="1">
                    <mxGeometry relative="1" as="geometry">
                        <mxPoint x="970" y="345" as="targetPoint"/>
                    </mxGeometry>
                </mxCell>
                <mxCell id="4tc6n9DdywTaeD5IJjd0-39" value="\(L\)" style="edgeLabel;html=1;align=center;verticalAlign=bottom;resizable=0;points=[];fontSize=35;labelPosition=center;verticalLabelPosition=top;" parent="4tc6n9DdywTaeD5IJjd0-38" vertex="1" connectable="0">
                    <mxGeometry relative="1" as="geometry">
                        <mxPoint as="offset"/>
                    </mxGeometry>
                </mxCell>
                <mxCell id="4tc6n9DdywTaeD5IJjd0-40" value="&lt;font style=&quot;font-size: 20px;&quot;&gt;loss&lt;/font&gt;" style="ellipse;whiteSpace=wrap;html=1;aspect=fixed;fontSize=35;verticalAlign=bottom;" parent="1" vertex="1">
                    <mxGeometry x="850" y="325" width="40" height="40" as="geometry"/>
                </mxCell>
                <mxCell id="4tc6n9DdywTaeD5IJjd0-51" value="\(x\)" style="edgeLabel;html=1;align=center;verticalAlign=top;resizable=0;points=[];fontSize=35;labelPosition=center;verticalLabelPosition=bottom;" parent="1" vertex="1" connectable="0">
                    <mxGeometry x="100" y="460.0000000000001" as="geometry"/>
                </mxCell>
                <mxCell id="4tc6n9DdywTaeD5IJjd0-52" value="\(1\)" style="edgeLabel;html=1;align=center;verticalAlign=top;resizable=0;points=[];fontSize=35;labelPosition=center;verticalLabelPosition=bottom;" parent="1" vertex="1" connectable="0">
                    <mxGeometry x="180" y="559.9999999999999" as="geometry"/>
                </mxCell>
                <mxCell id="4tc6n9DdywTaeD5IJjd0-53" value="\(1\)" style="edgeLabel;html=1;align=center;verticalAlign=top;resizable=0;points=[];fontSize=35;labelPosition=center;verticalLabelPosition=bottom;" parent="1" vertex="1" connectable="0">
                    <mxGeometry x="245" y="410.000000000005" as="geometry"/>
                </mxCell>
            </root>
        </mxGraphModel>
    </diagram>
</mxfile>